<?xml version="1.0" standalone="no"?>
<!DOCTYPE svg PUBLIC "-//W3C//DTD SVG 20010904//EN"
 "http://www.w3.org/TR/2001/REC-SVG-20010904/DTD/svg10.dtd">
<svg version="1.0" xmlns="http://www.w3.org/2000/svg"
 width="250.000000pt" height="250.000000pt" viewBox="0 0 250.000000 250.000000"
 preserveAspectRatio="xMidYMid meet">

<g transform="translate(0.000000,250.000000) scale(0.100000,-0.100000)"
fill="#000000" stroke="none">
<path d="M1737 2412 c-13 -14 -17 -38 -17 -96 l0 -77 -30 18 c-36 21 -63 10
-68 -26 -3 -19 -8 -22 -30 -16 -64 16 -245 35 -339 35 -125 0 -299 -22 -415
-53 -84 -23 -87 -23 -102 -5 -21 24 -48 23 -71 -2 -23 -26 -31 -15 -41 55 -3
27 -10 60 -15 72 -10 27 -42 37 -70 23 -18 -10 -21 -18 -16 -53 3 -23 8 -50
12 -59 5 -12 -2 -21 -24 -32 -39 -21 -38 -21 -56 14 -20 38 -68 42 -86 8 -10
-19 -5 -33 32 -105 40 -77 43 -85 26 -94 -9 -6 -50 -36 -90 -68 -150 -122
-253 -279 -291 -448 -90 -400 212 -796 727 -955 102 -31 110 -35 127 -69 46
-90 144 -140 311 -161 l101 -13 19 -55 c39 -112 118 -187 164 -156 11 7 26 30
32 50 22 63 -9 229 -57 313 l-19 32 54 6 c46 6 62 3 107 -19 132 -66 272 -8
408 169 l41 54 42 -15 c60 -22 179 -21 211 0 48 31 30 94 -39 136 l-36 22 34
37 c84 93 158 234 182 346 67 317 -103 632 -447 832 -43 26 -77 51 -75 57 23
61 57 202 52 217 -8 23 -50 35 -69 19 -8 -6 -18 -25 -21 -41 -6 -25 -10 -28
-33 -23 -54 11 -53 11 -46 62 5 38 3 52 -11 65 -22 22 -48 22 -68 -1z m-178
-221 c100 -21 141 -47 141 -87 0 -12 7 -28 16 -35 22 -18 13 -126 -17 -224
-24 -81 -82 -195 -111 -222 -19 -17 -20 -17 -35 2 -8 11 -32 55 -54 97 -49 98
-91 145 -154 174 -95 45 -206 28 -284 -42 -49 -44 -59 -62 -111 -201 -17 -46
-36 -83 -42 -83 -17 0 -112 105 -146 162 -18 30 -47 94 -64 142 -28 77 -30 92
-20 120 7 18 12 43 12 55 0 12 12 38 26 57 20 26 41 38 93 53 57 17 168 40
266 55 17 2 111 3 210 1 133 -3 205 -9 274 -24z m506 -204 c81 -54 198 -169
247 -241 185 -270 162 -591 -59 -844 l-38 -44 -77 26 c-135 46 -170 34 -220
-71 -17 -37 -52 -88 -78 -115 -41 -42 -51 -48 -88 -48 -60 0 -118 55 -170 163
-22 45 -38 85 -36 89 3 5 17 8 32 8 77 0 187 89 222 180 16 42 20 45 61 50 24
3 50 9 57 13 15 10 16 85 2 123 -10 25 -13 26 -65 22 -30 -3 -55 -1 -55 3 0 4
15 9 33 11 l32 3 -1 64 c-1 47 -5 67 -18 76 -23 17 -20 23 12 27 26 3 27 4 25
62 -3 88 -3 88 -78 84 -36 -1 -65 -2 -65 0 0 1 9 20 20 42 30 59 69 204 77
283 5 62 10 75 36 98 l30 28 51 -26 c28 -14 78 -44 111 -66z m-1590 3 c4 -6
23 -19 44 -29 33 -18 40 -28 65 -103 44 -129 100 -231 170 -307 17 -18 27 -35
21 -37 -5 -3 -16 -8 -22 -12 -7 -5 -34 -100 -60 -213 -27 -113 -49 -192 -51
-176 -4 37 -26 46 -97 37 -33 -4 -62 -6 -64 -4 -1 1 24 54 58 117 49 91 61
124 61 160 0 71 -4 71 -201 48 -111 -13 -178 -26 -187 -34 -19 -20 -6 -124 17
-136 9 -4 42 -5 74 -2 31 4 57 4 57 0 0 -4 -27 -59 -60 -122 -63 -120 -74
-171 -44 -201 19 -19 -3 -20 194 5 91 11 197 22 235 25 70 5 70 5 89 -26 21
-36 93 -85 149 -102 21 -6 36 -16 33 -22 -61 -139 -69 -167 -74 -233 -2 -40
-9 -73 -15 -73 -5 0 -57 16 -114 35 -333 111 -569 319 -659 580 -24 69 -28 96
-28 195 -1 155 31 254 125 390 42 62 152 172 218 219 48 34 56 36 66 21z
m1383 -436 l3 -51 -73 -7 c-100 -9 -108 -13 -108 -43 l0 -26 80 7 80 6 2 -40
c0 -22 1 -46 2 -52 1 -9 -24 -16 -71 -21 -73 -9 -73 -9 -73 -39 l0 -30 73 7
c131 13 121 16 128 -35 4 -25 4 -48 0 -52 -9 -10 -287 -42 -304 -35 -14 5 -64
413 -52 425 8 8 249 40 285 38 23 -1 25 -5 28 -52z m-378 11 c0 -2 -18 -51
-40 -107 -22 -57 -40 -106 -40 -111 0 -4 30 -52 67 -107 36 -55 63 -103 59
-107 -4 -4 -35 -9 -70 -11 l-63 -4 -33 53 c-39 66 -69 99 -87 99 -11 0 -13
-16 -7 -84 6 -81 6 -83 -17 -89 -13 -4 -41 -7 -61 -7 -44 0 -39 -19 -68 245
-10 99 -16 183 -12 186 4 4 32 9 62 11 l55 3 9 -77 c7 -64 12 -78 27 -78 12 0
25 20 44 73 15 39 34 79 41 87 8 8 38 17 67 21 28 3 55 7 60 8 4 0 7 -1 7 -4z
m-481 -271 c56 -114 99 -209 96 -212 -2 -3 -33 -5 -67 -6 -58 -1 -63 1 -75 25
-12 24 -15 25 -65 18 -29 -4 -60 -8 -68 -8 -9 -1 -20 -16 -25 -33 -9 -31 -14
-34 -69 -41 -32 -5 -60 -7 -62 -5 -5 5 96 442 104 450 7 6 49 13 103 16 25 2
33 -11 128 -204z m804 169 c-13 -2 -33 -2 -45 0 -13 2 -3 4 22 4 25 0 35 -2
23 -4z m-1226 -30 c5 -23 -8 -55 -70 -175 l-77 -147 58 7 c31 4 73 7 92 7 34
0 35 -1 38 -44 2 -24 0 -47 -5 -52 -10 -9 -331 -45 -338 -37 -3 3 -6 20 -6 39
-1 24 19 72 70 168 40 73 71 135 69 136 -2 2 -38 -1 -81 -6 -43 -5 -82 -7 -87
-4 -15 9 -12 95 3 100 16 6 242 32 289 34 33 1 38 -2 45 -26z m765 -574 c23
-67 98 -207 141 -266 34 -46 42 -63 32 -67 -8 -3 -72 -10 -142 -16 -241 -21
-301 1 -290 106 5 52 47 146 98 221 29 42 43 48 117 52 28 1 35 -3 44 -30z"/>
<path d="M2066 1669 c-83 -20 -138 -72 -154 -145 -11 -48 2 -185 24 -241 33
-90 135 -137 244 -114 76 16 130 49 158 96 22 37 23 48 18 149 -7 131 -29 185
-91 228 -46 32 -133 44 -199 27z m190 -46 c17 -13 39 -38 47 -56 24 -50 41
-206 27 -255 -21 -80 -114 -128 -230 -120 -107 8 -143 53 -161 201 -14 114 -6
157 40 201 42 40 95 57 176 53 53 -2 77 -7 101 -24z"/>
<path d="M2074 1523 c-14 -14 -16 -29 -10 -97 9 -101 23 -126 75 -126 62 0 74
22 66 117 -9 100 -23 123 -75 123 -23 0 -45 -7 -56 -17z m86 -18 c6 -8 14 -50
17 -94 l6 -80 -27 -7 c-37 -9 -54 9 -61 64 -4 26 -8 59 -11 73 -9 46 47 79 76
44z"/>
<path d="M830 1333 c0 -27 -3 -65 -6 -85 -7 -38 -7 -38 29 -38 20 0 39 5 42
10 4 6 -3 35 -14 66 -12 30 -21 64 -21 74 0 11 -7 20 -15 20 -11 0 -15 -12
-15 -47z"/>
</g>
</svg>
